#!OML:ASF E:\VariousWalksJay\Project 1\Capture day 1\Session 1\Actor2.ASF
:FULLY-SPECIFIED
:DEGREES
766
root 2.01058 15.7648 23.5603 20.1641 -39.299 -17.6424
lowerback 5.15106 -3.35076 17.2884
upperback 6.67775 -4.26495 2.12839
thorax 3.30428 -1.53537 -7.21688
lowerneck 4.97546 -7.74909 -10.155
upperneck -11.6269 -9.39726 23.5871
head -2.44942 -5.59637 9.33268
rclavicle -3.22031e-014 3.97569e-015
rhumerus -63.249 18.6406 -121.576
rradius 58.1754
rwrist 26.1946
rhand 4.14257 11.7158
rfingers 7.12502
rthumb 29.5518 -15.9517
lclavicle -3.22031e-014 3.97569e-015
lhumerus -67.744 -24.7337 130.036
lradius 54.7902
lwrist -6.4445
lhand -0.283676 2.22355
lfingers 7.12502
lthumb 25.3186 30.5631
rfemur -25.9357 7.75968 32.2596
rtibia 55.2949
rfoot -32.1092 -12.1244
rtoes -16.3412
lfemur -44.8347 -4.58265 3.53491
ltibia 57.1731
lfoot -19.5959 -17.6833
ltoes -9.31915
767
root 2.042 15.7575 23.6121 20.7005 -40.3781 -18.3375
lowerback 5.53576 -3.38777 17.3346
upperback 6.81573 -4.24799 1.93474
thorax 3.23007 -1.5218 -7.43371
lowerneck 4.78535 -7.47821 -10.0635
upperneck -11.5809 -9.00265 23.8976
head -2.45951 -5.4161 9.42157
rclavicle 1.06151e-013 -7.27552e-014
rhumerus -62.8457 18.4133 -121.584
rradius 58.0884
rwrist 26.4634
rhand 4.44419 11.8293
rfingers 7.12502
rthumb 29.8397 -15.7869
lclavicle 1.06151e-013 -7.27552e-014
lhumerus -67.9451 -25.2623 130.042
lradius 54.7913
lwrist -6.81135
lhand -0.374241 2.15722
lfingers 7.12502
lthumb 25.2319 30.509
rfemur -25.714 8.59947 32.3008
rtibia 55.0937
rfoot -32.1694 -12.3703
rtoes -16.3718
lfemur -44.3143 -3.82831 3.54398
ltibia 57.3776
lfoot -20.4613 -17.2184
ltoes -9.82007
768
root 2.07017 15.7571 23.6678 21.5492 -41.4477 -19.1944
lowerback 5.6719 -3.38408 17.4938
upperback 6.89364 -4.22084 1.79153
thorax 3.23287 -1.49607 -7.67177
lowerneck 4.63393 -7.20222 -9.93434
upperneck -11.5223 -8.60767 24.0923
head -2.48301 -5.23161 9.46656
rclavicle 1.31198e-014 -8.74653e-015
rhumerus -62.545 18.276 -121.635
rradius 57.9931
rwrist 26.6898
rhand 4.51038 12.0462
rfingers 7.12502
rthumb 29.9029 -15.5586
lclavicle 1.31198e-014 -8.74653e-015
lhumerus -68.1977 -25.698 130.144
lradius 54.8404
lwrist -6.80326
lhand -0.564505 2.10641
lfingers 7.12502
lthumb 25.0496 30.4837
rfemur -25.6077 9.49845 32.3948
rtibia 54.73
rfoot -32.1711 -12.4963
rtoes -16.4176
lfemur -43.8637 -2.97357 3.65573
ltibia 57.4543
lfoot -21.4069 -16.5875
ltoes -10.5137
769
root 2.09597 15.7621 23.7263 22.6974 -42.4655 -20.1894
lowerback 5.57324 -3.35333 17.751
upperback 6.91065 -4.1988 1.70249
thorax 3.30053 -1.46726 -7.91658
lowerneck 4.49238 -6.92401 -9.78497
upperneck -11.4314 -8.21829 24.1946
head -2.50489 -5.04405 9.47502
rclavicle -8.66701e-014 1.98785e-014
rhumerus -62.3323 18.2208 -121.713
rradius 57.8739
rwrist 26.9241
rhand 4.25158 12.463
rfingers 7.12502
rthumb 29.6559 -15.1861
lclavicle -8.66701e-014 1.98785e-014
lhumerus -68.4651 -26.03 130.317
lradius 54.8949
lwrist -6.6075
lhand -0.819053 2.0494
lfingers 7.12502
lthumb 24.8056 30.4605
rfemur -25.6698 10.4117 32.5159
rtibia 54.266
rfoot -32.0863 -12.4723
rtoes -16.5328
lfemur -43.5538 -2.09406 3.87369
ltibia 57.4517
lfoot -22.3487 -15.8145
ltoes -11.4177
770
root 2.12086 15.7709 23.7858 24.054 -43.4105 -21.2783
lowerback 5.32401 -3.31731 18.0722
upperback 6.88259 -4.19673 1.65987
thorax 3.39956 -1.44597 -8.15215
lowerneck 4.3215 -6.65154 -9.6112
upperneck -11.2794 -7.84793 24.2148
head -2.50641 -4.85737 9.44554
rclavicle 1.00585e-013 -2.06736e-014
rhumerus -62.1856 18.2213 -121.794
rradius 57.7334
rwrist 27.1572
rhand 3.85088 12.8008
rfingers 7.12502
rthumb 29.2733 -14.9156
lclavicle 1.00585e-013 -2.06736e-014
lhumerus -68.7098 -26.2522 130.525
lradius 54.9229
lwrist -6.36002
lhand -1.11567 1.97829
lfingers 7.12502
lthumb 24.5213 30.4283
rfemur -25.8768 11.2911 32.6404
rtibia 53.7566
rfoot -31.9067 -12.2945
rtoes -16.7155
lfemur -43.3786 -1.26917 4.17532
ltibia 57.4109
lfoot -23.2179 -14.943
ltoes -12.3824
771
root 2.14605 15.7824 23.8448 25.5142 -44.2702 -22.4093
lowerback 5.01902 -3.29598 18.413
upperback 6.82157 -4.22421 1.65847
thorax 3.48779 -1.44193 -8.35392
lowerneck 4.09559 -6.38768 -9.42233
upperneck -11.0422 -7.50392 24.1662
head -2.47291 -4.67283 9.38196
rclavicle 2.42517e-014 2.38542e-015
rhumerus -62.1006 18.2404 -121.858
rradius 57.5719
rwrist 27.4365
rhand 3.33869 13.0488
rfingers 7.12502
rthumb 28.7842 -14.7519
lclavicle 2.42517e-014 2.38542e-015
lhumerus -68.9099 -26.3625 130.742
lradius 54.9075
lwrist -6.16258
lhand -1.41898 1.89087
lfingers 7.12502
lthumb 24.2306 30.38
rfemur -26.1818 12.0875 32.7526
rtibia 53.2347
rfoot -31.6371 -11.9834
rtoes -16.9327
lfemur -43.3065 -0.560798 4.52858
ltibia 57.3562
lfoot -23.9881 -13.996
ltoes -13.4109
772
root 2.17189 15.7977 23.9029 26.9728 -45.0585 -23.5317
lowerback 4.72428 -3.29134 18.7497
upperback 6.75429 -4.27319 1.67485
thorax 3.55848 -1.45098 -8.53198
lowerneck 3.80462 -6.14521 -9.20905
upperneck -10.7336 -7.20029 24.0767
head -2.40261 -4.49948 9.29274
rclavicle 1.82882e-014 -5.40694e-014
rhumerus -62.0505 18.2313 -121.9
rradius 57.4012
rwrist 27.7544
rhand 2.6563 13.2251
rfingers 7.12502
rthumb 28.1321 -14.6846
lclavicle 1.82882e-014 -5.40694e-014
lhumerus -69.0718 -26.4076 130.955
lradius 54.8549
lwrist -5.94812
lhand -1.72864 1.77319
lfingers 7.12502
lthumb 23.9336 30.3016
rfemur -26.5091 12.7706 32.8396
rtibia 52.7054
rfoot -31.299 -11.5747
rtoes -17.1334
lfemur -43.2691 -0.014558 4.89769
ltibia 57.2892
lfoot -24.6348 -13.0283
ltoes -14.3261
773
root 2.19854 15.8172 23.9605 28.3497 -45.8069 -24.6184
lowerback 4.50746 -3.30851 19.0594
upperback 6.69437 -4.33666 1.69662
thorax 3.58991 -1.47183 -8.6841
lowerneck 3.454 -5.92186 -8.97491
upperneck -10.3644 -6.93276 23.9581
head -2.29941 -4.33645 9.18426
rclavicle -2.54444e-014 -4.69132e-014
rhumerus -62.0454 18.1773 -121.923
rradius 57.2431
rwrist 28.1032
rhand 1.92125 13.2248
rfingers 7.12502
rthumb 27.4293 -14.7984
lclavicle -2.54444e-014 -4.69132e-014
lhumerus -69.218 -26.4054 131.179
lradius 54.7776
lwrist -5.632
lhand -2.06048 1.63351
lfingers 7.12502
lthumb 23.6154 30.2033
rfemur -26.7739 13.3263 32.8992
rtibia 52.1533
rfoot -30.9198 -11.098
rtoes -17.242
lfemur -43.1828 0.369802 5.24097
ltibia 57.1984
lfoot -25.1987 -12.0276
ltoes -15.1832
774
root 2.22558 15.841 24.0175 29.5938 -46.5432 -25.6625
lowerback 4.41524 -3.34903 19.3226
upperback 6.65454 -4.40677 1.71551
thorax 3.5719 -1.50171 -8.80666
lowerneck 3.06413 -5.70984 -8.7338
upperneck -9.95772 -6.68787 23.8355
head -2.17405 -4.18007 9.0706
rclavicle 1.19271e-015 -3.97569e-014
rhumerus -62.0872 18.066 -121.931
rradius 57.1156
rwrist 28.4247
rhand 1.11038 13.1275
rfingers 7.12502
rthumb 26.6535 -15.0161
lclavicle 1.19271e-015 -3.97569e-014
lhumerus -69.3533 -26.3677 131.393
lradius 54.696
lwrist -5.17436
lhand -2.39456 1.48375
lfingers 7.12502
lthumb 23.2949 30.0945
rfemur -26.9003 13.762 32.9408
rtibia 51.5543
rfoot -30.5241 -10.5842
rtoes -17.2322
lfemur -42.9742 0.612406 5.53381
ltibia 57.0658
lfoot -25.7151 -11.0012
ltoes -15.9905
775
root 2.25217 15.8694 24.0741 30.697 -47.2764 -26.6755
lowerback 4.46246 -3.41848 19.5352
upperback 6.63555 -4.48631 1.73036
thorax 3.49608 -1.54308 -8.8972
lowerneck 2.66912 -5.49317 -8.49913
upperneck -9.54116 -6.44046 23.7255
head -2.04358 -4.02147 8.96339
rclavicle -3.1408e-014 7.55382e-014
rhumerus -62.1844 17.9137 -121.936
rradius 57.0281
rwrist 28.6112
rhand 0.299901 13.0534
rfingers 7.12502
rthumb 25.8776 -15.2058
lclavicle -3.1408e-014 7.55382e-014
lhumerus -69.4973 -26.2928 131.597
lradius 54.6402
lwrist -4.54589
lhand -2.73214 1.36619
lfingers 7.12502
lthumb 22.971 30.0176
rfemur -26.8454 14.0982 32.9806
rtibia 50.8854
rfoot -30.131 -10.0515
rtoes -17.1049
lfemur -42.6089 0.737367 5.77982
ltibia 56.8778
lfoot -26.1973 -10.0069
ltoes -16.6301
776
root 2.2778 15.9017 24.1303 31.7129 -48.0197 -27.6891
lowerback 4.62131 -3.51496 19.6991
upperback 6.62222 -4.57675 1.75402
thorax 3.3618 -1.59791 -8.94342
lowerneck 2.30559 -5.25641 -8.28751
upperneck -9.13052 -6.16832 23.6178
head -1.92262 -3.85126 8.86472
rclavicle -1.11319e-014 -4.05521e-014
rhumerus -62.3765 17.7714 -121.954
rradius 57.0035
rwrist 28.5819
rhand -0.341711 13.0037
rfingers 7.12502
rthumb 25.263 -15.3436
lclavicle -1.11319e-014 -4.05521e-014
lhumerus -69.6513 -26.1502 131.795
lradius 54.6273
lwrist -3.72708
lhand -3.07245 1.27958
lfingers 7.12502
lthumb 22.6444 29.9712
rfemur -26.6304 14.3784 33.0236
rtibia 50.136
rfoot -29.7468 -9.48888
rtoes -16.8591
lfemur -42.0988 0.798794 5.98589
ltibia 56.6306
lfoot -26.6828 -9.03339
ltoes -17.2295
777
root 2.3019 15.9369 24.1867 32.7395 -48.7714 -28.7424
lowerback 4.79845 -3.61835 19.8554
upperback 6.61531 -4.67265 1.77922
thorax 3.22293 -1.65623 -8.98172
lowerneck 1.96941 -4.99635 -8.08599
upperneck -8.74283 -5.86298 23.5265
head -1.81656 -3.66741 8.77741
rclavicle 2.06736e-014 2.14687e-014
rhumerus -62.6264 17.6668 -121.997
rradius 57.0415
rwrist 28.2737
rhand -0.757264 13.0374
rfingers 7.12502
rthumb 24.8649 -15.3656
lclavicle 2.06736e-014 2.14687e-014
lhumerus -69.8196 -25.9837 131.974
lradius 54.6647
lwrist -2.75924
lhand -3.40864 1.23823
lfingers 7.12502
lthumb 22.3217 29.9689
rfemur -26.3299 14.6509 33.0711
rtibia 49.3078
rfoot -29.3644 -8.89075
rtoes -16.5342
lfemur -41.511 0.845845 6.17834
ltibia 56.3326
lfoot -27.1698 -8.10823
ltoes -17.7629
778
root 2.32383 15.9737 24.2437 33.8663 -49.5105 -29.8652
lowerback 4.92144 -3.71925 20.0291
upperback 6.59473 -4.77585 1.81884
thorax 3.09747 -1.71753 -9.01539
lowerneck 1.67158 -4.70891 -7.90562
upperneck -8.37577 -5.51944 23.4497
head -1.72718 -3.46741 8.70278
rclavicle 1.39149e-014 3.81667e-014
rhumerus -62.9201 17.6095 -122.073
rradius 57.1238
rwrist 27.6704
rhand -0.879299 13.1303
rfingers 7.12502
rthumb 24.7479 -15.2888
lclavicle 1.39149e-014 3.81667e-014
lhumerus -70.0278 -25.7964 132.175
lradius 54.7353
lwrist -1.80573
lhand -3.75837 1.28841
lfingers 7.12502
lthumb 21.986 30.0589
rfemur -26.0284 14.9428 33.1278
rtibia 48.4162
rfoot -28.973 -8.25081
rtoes -16.1665
lfemur -40.9263 0.901427 6.38936
ltibia 56.0001
lfoot -27.6552 -7.25611
ltoes -18.2102
779
root 2.34334 16.0111 24.3014 35.1428 -50.2224 -31.0606
lowerback 4.93917 -3.80762 20.2357
upperback 6.55255 -4.88396 1.87052
thorax 3.00519 -1.77829 -9.05882
lowerneck 1.39788 -4.40133 -7.7316
upperneck -8.01955 -5.14843 23.3848
head -1.64808 -3.25579 8.63593
rclavicle -6.04305e-014 -2.70347e-014
rhumerus -63.2606 17.6204 -122.19
rradius 57.269
rwrist 26.7187
rhand -0.677652 13.2833
rfingers 7.12502
rthumb 24.9411 -15.1091
lclavicle -6.04305e-014 -2.70347e-014
lhumerus -70.2745 -25.6053 132.387
lradius 54.838
lwrist -0.871213
lhand -4.05716 1.41914
lfingers 7.12502
lthumb 21.6991 30.223
rfemur -25.7952 15.2692 33.1846
rtibia 47.4864
rfoot -28.562 -7.57358
rtoes -15.7993
lfemur -40.4104 0.975648 6.62928
ltibia 55.6534
lfoot -28.1346 -6.51111
ltoes -18.5561
780
root 2.36063 16.0478 24.3595 36.5733 -50.8984 -32.3189
lowerback 4.83595 -3.88087 20.4831
upperback 6.49248 -4.99818 1.92655
thorax 2.95757 -1.83714 -9.12628
lowerneck 1.12831 -4.0838 -7.54907
upperneck -7.66305 -4.76532 23.331
head -1.57052 -3.03898 8.57236
rclavicle -3.61788e-014 5.08889e-014
rhumerus -63.6299 17.7022 -122.383
rradius 57.462
rwrist 25.5454
rhand -0.304904 13.3118
rfingers 7.12502
rthumb 25.2983 -15.0306
lclavicle -3.61788e-014 5.08889e-014
lhumerus -70.5546 -25.4307 132.597
lradius 54.9589
lwrist -0.0156028
lhand -4.32557 1.60604
lfingers 7.12502
lthumb 21.4413 30.4395
rfemur -25.6627 15.6294 33.2371
rtibia 46.5468
rfoot -28.1256 -6.88026
rtoes -15.4667
lfemur -39.9929 1.06353 6.89635
ltibia 55.309
lfoot -28.61 -5.89332
ltoes -18.8304
